<svg xmlns="http://www.w3.org/2000/svg" version="1.0" viewBox="200 100 950 406">
    <g fill="#0072bb" stroke="black" stroke-width="1" filter="drop-shadow(1px 0px 2px white) drop-shadow(-1px 0px 2px white) drop-shadow(0px 1px 2px white) drop-shadow(0px -1px 2px white)">
      <path d="M470 168.5V209h90v-81h-90z" />
      <path
      d="M578 168.5v39.4l65.3.3c64.1.3 65.3.3 69.8 2.4 9.6 4.5 13.4 11.8 12.7 24.1-.5 9-2.3 13.1-7.3 16.9-7.1 5.4-6 5.3-75.7 5.4H578v74.9l69.3.3 69.2.3 5.8 2.9c9.7 4.7 14.1 14.1 14 29.6-.1 10-1.7 15.3-6 20.1s-8.9 7.3-17.5 9.6c-5.6 1.5-14.8 1.7-81 2l-74.8.4V225h-85v249.1l117.8-.4c80.3-.3 120.4-.8 126.2-1.6 51.9-6.9 84.2-25.7 100.3-58.3 6.6-13.3 8.1-20.8 8.1-40.8 0-14.8-.4-18.7-2.2-25.2-4.3-15.6-13-29.8-25.5-41.5-7.1-6.6-21.5-16.1-25.9-17-1.6-.3-2.8-.8-2.7-1.2 0-.3 3.2-2.6 7.1-5.1 10.8-6.9 21.9-19.2 27.3-30.3 5.4-11.2 7.5-20.6 7.5-34 0-27.2-11.8-48.4-35.5-64.2-10.6-7.1-20.3-11.5-34.5-15.8-25.5-7.8-49-9.7-118.7-9.7H578zM240 170v39h64v266h87V209h62v-78H240z"
      />
    <path
    d="M830 133c-48.9.9-43.9.5-40.4 3.2 5.1 3.7 16.4 15.1 20.9 20.9 13.4 17.2 19.5 34.8 19.5 56.2-.1 22.3-8 45.1-24 68.7l-3.8 5.6 8.8 8.6c24.4 24.2 37 50.4 37 76.8 0 31.6-18.8 62.8-55.4 92.1l-9.8 7.9H886l.4-2.3c.2-1.2 1.2-44.5 2.1-96.2 1-51.7 1.9-94.2 2.1-94.4.9-.9 3.7 3.2 26.8 38.9l23.6 36.5-14.5.3-14.5.3V426h78.6l12.9 23.1c7.1 12.7 13.3 23.3 13.9 23.5s23.3.3 50.4.2l49.2-.3-110-170-110.1-170-14.2-.1c-7.8 0-31.5.3-52.7.6"
    />
  </g>
</svg>